<svg width="1200" height="360" viewBox="0 0 1200 360" fill="none" xmlns="http://www.w3.org/2000/svg">
  <rect width="1200" height="360" rx="34" fill="#07090D"/>
  <rect x="30" y="30" width="1140" height="300" rx="28" stroke="#F4F4F4" stroke-opacity="0.16" stroke-width="2"/>
  <g opacity="0.55">
    <circle cx="205" cy="92" r="2.5" fill="#FFFFFF"/>
    <circle cx="315" cy="255" r="2" fill="#FFFFFF"/>
    <circle cx="884" cy="92" r="2.5" fill="#FFFFFF"/>
    <circle cx="1008" cy="248" r="2" fill="#FFFFFF"/>
    <circle cx="1115" cy="145" r="2" fill="#9B7CFF"/>
    <circle cx="91" cy="212" r="2" fill="#FFFFFF"/>
    <circle cx="742" cy="283" r="1.8" fill="#9B7CFF"/>
    <circle cx="482" cy="76" r="1.8" fill="#FFFFFF"/>
  </g>
  <g opacity="0.25">
    <path d="M116 256C241 123 421 73 600 78C779 83 949 143 1082 247" stroke="#FFFFFF" stroke-width="1.6" stroke-linecap="round"/>
    <path d="M167 104C300 199 438 242 589 238C751 234 894 180 1047 83" stroke="#9B7CFF" stroke-width="1.3" stroke-linecap="round"/>
    <ellipse cx="600" cy="181" rx="438" ry="118" stroke="#FFFFFF" stroke-opacity="0.35" stroke-width="1.5"/>
  </g>
  <g opacity="0.42">
    <circle cx="166" cy="104" r="34" stroke="#FFFFFF" stroke-width="3"/>
    <circle cx="1032" cy="102" r="48" stroke="#FFFFFF" stroke-width="3"/>
    <circle cx="1032" cy="102" r="71" stroke="#9B7CFF" stroke-opacity="0.28" stroke-width="2"/>
    <path d="M126 104H78" stroke="#FFFFFF" stroke-width="2" stroke-linecap="round"/>
    <path d="M206 104H270" stroke="#FFFFFF" stroke-width="2" stroke-linecap="round"/>
    <path d="M984 102H914" stroke="#FFFFFF" stroke-width="2" stroke-linecap="round"/>
    <path d="M1080 102H1128" stroke="#FFFFFF" stroke-width="2" stroke-linecap="round"/>
  </g>
  <g filter="url(#cosmicGlow)">
    <ellipse cx="600" cy="153" rx="300" ry="78" fill="url(#lightBeam)" opacity="0.95"/>
  </g>
  <text x="600" y="164" text-anchor="middle" font-family="Impact, Haettenschweiler, 'Arial Black', Inter, sans-serif" font-size="88" font-weight="900" fill="#FFFFFF" letter-spacing="5" stroke="#0B0D11" stroke-width="2" paint-order="stroke">AFREEN TAHIR</text>
  <g font-family="Inter, Segoe UI, Arial, sans-serif" font-size="15" font-weight="900" letter-spacing="1">
    <rect x="214" y="192" width="196" height="36" rx="18" fill="#F4F4F4"/>
    <text x="312" y="216" text-anchor="middle" fill="#080A0D">DATA ANALYTICS</text>
    <rect x="431" y="192" width="232" height="36" rx="18" fill="#1A1D23" stroke="#9B7CFF" stroke-opacity="0.75"/>
    <text x="547" y="216" text-anchor="middle" fill="#F4F4F4">MARKETING STRATEGY</text>
    <rect x="684" y="192" width="302" height="36" rx="18" fill="#F4F4F4"/>
    <text x="835" y="216" text-anchor="middle" fill="#080A0D">SOFTWARE ENGINEERING</text>
  </g>
  <rect x="430" y="255" width="340" height="42" rx="21" fill="#F4F4F4"/>
  <text x="600" y="282" text-anchor="middle" font-family="Inter, Segoe UI, Arial, sans-serif" font-size="17" font-weight="900" fill="#080A0D" letter-spacing="2">BUILDING USEFUL SYSTEMS</text>
  <defs>
    <radialGradient id="lightBeam" cx="0" cy="0" r="1" gradientUnits="userSpaceOnUse" gradientTransform="translate(600 153) scale(300 78)">
      <stop stop-color="#FFFFFF" stop-opacity="0.95"/>
      <stop offset="0.32" stop-color="#E6E7EA" stop-opacity="0.5"/>
      <stop offset="0.7" stop-color="#9B7CFF" stop-opacity="0.18"/>
      <stop offset="1" stop-color="#07090D" stop-opacity="0"/>
    </radialGradient>
    <filter id="cosmicGlow" x="230" y="30" width="740" height="246" filterUnits="userSpaceOnUse" color-interpolation-filters="sRGB">
      <feGaussianBlur stdDeviation="18"/>
    </filter>
  </defs>
</svg>
