<svg width="1200" height="360" viewBox="0 0 1200 360" fill="none" xmlns="http://www.w3.org/2000/svg">
  <rect width="1200" height="360" rx="34" fill="#080A0D"/>
  <rect x="28" y="28" width="1144" height="304" rx="26" stroke="#EDEDED" stroke-opacity="0.18" stroke-width="2"/>

  <g opacity="0.22">
    <path d="M92 88H278" stroke="#FFFFFF" stroke-width="2" stroke-linecap="round"/>
    <path d="M92 112H210" stroke="#FFFFFF" stroke-width="2" stroke-linecap="round"/>
    <path d="M920 248H1108" stroke="#FFFFFF" stroke-width="2" stroke-linecap="round"/>
    <path d="M996 272H1108" stroke="#FFFFFF" stroke-width="2" stroke-linecap="round"/>
    <path d="M164 287L245 206L310 271L396 185" stroke="#FFFFFF" stroke-width="2" stroke-linecap="round" stroke-linejoin="round"/>
    <path d="M820 89L895 164L970 89L1045 164" stroke="#FFFFFF" stroke-width="2" stroke-linecap="round" stroke-linejoin="round"/>
  </g>

  <g opacity="0.18">
    <circle cx="157" cy="82" r="42" stroke="#FFFFFF" stroke-width="3"/>
    <circle cx="1041" cy="92" r="58" stroke="#FFFFFF" stroke-width="3"/>
    <rect x="93" y="232" width="94" height="94" rx="22" stroke="#FFFFFF" stroke-width="3"/>
    <rect x="1004" y="226" width="94" height="94" rx="22" stroke="#FFFFFF" stroke-width="3"/>
  </g>

  <g filter="url(#nameGlow)">
    <ellipse cx="600" cy="158" rx="300" ry="78" fill="url(#lightBeam)" opacity="0.9"/>
  </g>

  <path d="M348 80H852" stroke="url(#topLine)" stroke-width="2" stroke-linecap="round" opacity="0.75"/>
  <path d="M386 253H814" stroke="url(#bottomLine)" stroke-width="2" stroke-linecap="round" opacity="0.75"/>

  <text x="600" y="175" text-anchor="middle"
        font-family="Impact, Haettenschweiler, 'Arial Black', Inter, sans-serif"
        font-size="92" font-weight="900" fill="#FAFAFA" letter-spacing="5"
        stroke="#111111" stroke-width="2" paint-order="stroke">
    AFREEN TAHIR
  </text>

  <text x="600" y="222" text-anchor="middle"
        font-family="Inter, Segoe UI, Arial, sans-serif"
        font-size="23" font-weight="700" fill="#C9CDD3" letter-spacing="3">
    BUSINESS DATA ANALYTICS  /  MARKETING STRATEGY  /  SOFTWARE ENGINEERING
  </text>

  <g>
    <rect x="424" y="260" width="352" height="42" rx="21" fill="#F4F4F4"/>
    <text x="600" y="287" text-anchor="middle"
          font-family="Inter, Segoe UI, Arial, sans-serif"
          font-size="17" font-weight="900" fill="#080A0D" letter-spacing="2">
      BUILDING USEFUL SYSTEMS
    </text>
  </g>

  <g opacity="0.55">
    <path d="M296 124L312 157L348 162L322 187L328 222L296 205L264 222L270 187L244 162L280 157L296 124Z" fill="#FFFFFF"/>
    <path d="M904 122L916 147L944 151L924 170L929 198L904 185L879 198L884 170L864 151L892 147L904 122Z" fill="#FFFFFF"/>
  </g>

  <defs>
    <radialGradient id="lightBeam" cx="0" cy="0" r="1" gradientUnits="userSpaceOnUse" gradientTransform="translate(600 158) scale(306 84)">
      <stop stop-color="#FFFFFF" stop-opacity="0.95"/>
      <stop offset="0.28" stop-color="#D7DAE2" stop-opacity="0.48"/>
      <stop offset="0.64" stop-color="#8B9099" stop-opacity="0.16"/>
      <stop offset="1" stop-color="#080A0D" stop-opacity="0"/>
    </radialGradient>
    <linearGradient id="topLine" x1="348" y1="80" x2="852" y2="80" gradientUnits="userSpaceOnUse">
      <stop stop-color="#080A0D"/>
      <stop offset="0.5" stop-color="#FFFFFF"/>
      <stop offset="1" stop-color="#080A0D"/>
    </linearGradient>
    <linearGradient id="bottomLine" x1="386" y1="253" x2="814" y2="253" gradientUnits="userSpaceOnUse">
      <stop stop-color="#080A0D"/>
      <stop offset="0.5" stop-color="#FFFFFF"/>
      <stop offset="1" stop-color="#080A0D"/>
    </linearGradient>
    <filter id="nameGlow" x="230" y="32" width="740" height="252" filterUnits="userSpaceOnUse" color-interpolation-filters="sRGB">
      <feGaussianBlur stdDeviation="18"/>
    </filter>
  </defs>
</svg>
