<svg width="42" height="42" viewBox="0 0 42 42" fill="none" xmlns="http://www.w3.org/2000/svg">
  <rect x="2" y="2" width="38" height="38" rx="14" fill="#111111"/>
  <path d="M21 11.5C15.75 11.5 11.5 15.75 11.5 21C11.5 25.25 14.25 28.85 18.1 30.1C18.6 30.2 18.8 29.9 18.8 29.65V27.9C16.1 28.5 15.5 26.75 15.5 26.75C15.05 25.6 14.4 25.3 14.4 25.3C13.5 24.65 14.45 24.65 14.45 24.65C15.45 24.7 15.95 25.7 15.95 25.7C16.85 27.2 18.25 26.75 18.85 26.5C18.95 25.85 19.2 25.4 19.5 25.15C17.35 24.9 15.1 24.05 15.1 20.4C15.1 19.35 15.45 18.5 16.1 17.8C16 17.55 15.65 16.55 16.2 15.25C16.2 15.25 17.05 15 18.85 16.25C19.65 16.05 20.45 15.95 21.25 15.95C22.05 15.95 22.85 16.05 23.65 16.25C25.45 15 26.3 15.25 26.3 15.25C26.85 16.55 26.5 17.55 26.4 17.8C27.05 18.5 27.4 19.35 27.4 20.4C27.4 24.05 25.15 24.9 23 25.15C23.35 25.45 23.65 26.05 23.65 27V29.65C23.65 29.9 23.85 30.2 24.35 30.1C28.2 28.85 31 25.25 31 21C31 15.75 26.75 11.5 21.5 11.5H21Z" fill="#FFFFFF"/>
</svg>
